<svg id="Camada_1" data-name="Camada 1" xmlns="http://www.w3.org/2000/svg" viewBox="0 0 632.92 210.67"><defs><style>.cls-1{fill:#25292c;}.cls-2{fill:#3576ed;}.cls-3{fill:#818488;}</style></defs><path class="cls-1" d="M233.3,127.13H211.21l-20.67-66.5h16.3l10.87,37.92c1.77,6.26,3.19,12.4,4.72,18.07,1.42-5.67,2.72-11.7,4.49-18.07l10.75-37.92H254Z"/><path class="cls-1" d="M260.55,127.13V60.63h15.71v66.5Z"/><path class="cls-1" d="M307.84,128.79c-9.21,0-19.73-1.66-22.68-2.6V115.08c3.43.24,13.47,1.54,22,1.54,9.69,0,12.29-2.25,12.29-7s-2-5.79-11.82-9.69l-5.08-2c-12.52-5-18.31-10.63-18.31-20.9,0-13.35,8.86-18.08,26.58-18.08,7.56,0,17.48,1.54,20.79,2.6V72.44c-7.44-.71-14.76-1.18-20.55-1.18-8,0-11.46.71-11.46,5.43,0,4.26,2.36,5.44,10.51,8.63l5.32,2.12c14.29,5.79,19.25,10.28,19.37,21.27C334.77,121.23,326.39,128.79,307.84,128.79Z"/><path class="cls-1" d="M385,127.13v-5.31c-7.91,4.25-15.35,7.08-23,7.08-17.37,0-20-12.28-20-26V60.63h15.48v42.29c0,9.45,1.77,12.87,9.57,12.87,4.49,0,10.27-1.77,17.36-4.49V60.63H400v66.5Z"/><path class="cls-1" d="M448.47,127.13v-4.37a38,38,0,0,1-21,6.14c-12.4,0-19.49-6.14-19.49-19V107.4c0-17.71,12.76-20.08,31.42-20.08h7.92V83.19c0-9.45-2-11.34-13.82-11.34a186.4,186.4,0,0,0-20.91,1.3V62.64c2.83-1.19,12.76-3.67,23.51-3.67,21.26,0,26.81,7.21,26.81,24.22v43.94Zm-.83-30.24h-8.27c-11.45,0-16.3,1.3-16.3,10v2.84c0,6.14,3.78,7.79,9.33,7.79a34.18,34.18,0,0,0,15.24-4Z"/><path class="cls-1" d="M473.93,127.13V35.35h15.59v91.78Z"/><path class="cls-1" d="M501.07,127.13V35.35h15.6v91.78Z"/><path class="cls-1" d="M564.33,129.61C559,145.32,554.05,153,539.4,153a85.33,85.33,0,0,1-15.83-1.42V140.24c5.44.36,8.39.48,12.53.48,5.67,0,7.44-2.6,10.27-9.93l1.54-4.13-24.81-66H540L551.57,96c1.89,5.9,2.95,11.22,4.84,17.72,1.42-6.5,2.6-11.82,4.37-17.72L571.3,60.63h16.18Z"/><g id="Ãcone"><path class="cls-2" d="M114.42,27.12H81.73c-32.64,0-48.91,19.74-48.91,60.58s16.27,60.73,48.91,60.73h32.69c32.66,0,48.91-19.85,48.91-60.73S147.08,27.12,114.42,27.12Zm-2.36,108.43H84.17c-35.08,0-35-21-35-47.88s-.07-47.74,35-47.74v0c14.74,0,0-.06,0-.06h27.89s-14.73.06,0,.06c35.09,0,35,20.91,35,47.77S147.19,135.55,112.06,135.55Z"/><path class="cls-2" d="M129.61,94.44V81.62H104V56.26H91.23V94.44Z"/><path class="cls-2" d="M73.52,119.3h49.11a7,7,0,0,0,7-7l0-5.82H79.35V56.26H73.51a7,7,0,0,0-7,7v49.06A7,7,0,0,0,73.52,119.3Z"/><path class="cls-2" d="M121.9,56.26c5,0,7.69,3.06,7.69,7.69v5.69h-13.8V56.26Z"/></g><path class="cls-3" d="M209.08,181a60.22,60.22,0,0,1-7.35-.51V152.28H205v8.91a11.32,11.32,0,0,1,5.38-1.34c5.17,0,7.57,2.73,7.57,8.51v3.42C218,178.18,215,181,209.08,181Zm5.6-12.63c0-4-1.27-5.6-4.69-5.6a11.48,11.48,0,0,0-5,1.06v14.08c.91.07,2.36.18,4.14.18,3.75,0,5.53-1.53,5.53-6.3Z"/><path class="cls-3" d="M229.83,182.22c-1.35,3.86-2.62,6.33-6.74,6.33a21.13,21.13,0,0,1-3.89-.36v-2.51c1.57.11,2.48.14,3.79.14,2,0,2.51-1,3.6-3.93l.54-1.45-7.75-20H223l4.07,11.24c.62,1.78,1,3.17,1.67,5.31a55.38,55.38,0,0,1,1.53-5.34l3.68-11.21h3.49Z"/><path class="cls-3" d="M250.88,165.09v15.35h-4.76V160h4.54v1.67a10.18,10.18,0,0,1,7-2.18v4.4A18,18,0,0,0,250.88,165.09Z"/><path class="cls-3" d="M268.43,181c-6,0-9.24-3-9.24-9.53v-2.51c0-6.44,3.27-9.49,9.24-9.49s9.24,3.05,9.24,9.49v2.51C277.67,177.93,274.4,181,268.43,181Zm4.47-12c0-3.93-1.34-5.38-4.47-5.38S264,165,264,168.94v2.51c0,3.93,1.34,5.42,4.47,5.42s4.47-1.49,4.47-5.42Z"/><path class="cls-3" d="M288.89,181c-5.9,0-8.63-3.34-8.63-9.49v-2.58c0-6.26,2.73-9.46,8.63-9.46a23.36,23.36,0,0,1,6.33.76v3.64c-2.59-.22-4.37-.33-5.5-.33-3,0-4.65.95-4.65,5.39v2.58c0,4.4,1.67,5.42,4.65,5.42,1.13,0,2.91-.11,5.5-.33v3.64A24.69,24.69,0,0,1,288.89,181Z"/><path class="cls-3" d="M309.94,180.44l-7.24-9.71v9.71h-4.76V152.17h4.76v16.92L310,160h5.49l-7.93,9.82,8.15,10.66Z"/><path class="cls-3" d="M324.61,181c-5.9,0-8.62-3.34-8.62-9.49v-2.58c0-6.26,2.72-9.46,8.62-9.46a23.3,23.3,0,0,1,6.33.76v3.64c-2.59-.22-4.37-.33-5.5-.33-3,0-4.65.95-4.65,5.39v2.58c0,4.4,1.67,5.42,4.65,5.42,1.13,0,2.91-.11,5.5-.33v3.64A24.62,24.62,0,0,1,324.61,181Z"/><path class="cls-3" d="M342.15,181c-6,0-9.24-3-9.24-9.53v-2.51c0-6.44,3.28-9.49,9.24-9.49s9.24,3.05,9.24,9.49v2.51C351.39,177.93,348.12,181,342.15,181Zm4.48-12c0-3.93-1.35-5.38-4.48-5.38s-4.47,1.45-4.47,5.38v2.51c0,3.93,1.34,5.42,4.47,5.42s4.48-1.49,4.48-5.42Z"/><path class="cls-3" d="M367.67,180.44v-13c0-2.94-.51-4-2.88-4a15.81,15.81,0,0,0-5.38,1.38v15.57h-4.76V160h4.58v1.64a13.63,13.63,0,0,1,6.73-2.15c5.78,0,6.55,3.35,6.55,8v13Z"/><path class="cls-3" d="M384.22,181c-4,0-5.63-1.6-5.63-5.89V163.81l-3.82-.32V160h3.82v-5.2h4.8V160h5v3.85h-5V175c0,1.89.14,2.25,1.89,2.25,1.05,0,2.51-.07,3.09-.14v3.27A17.14,17.14,0,0,1,384.22,181Z"/><path class="cls-3" d="M394.84,171.71v.36c0,3,.44,4.91,5.46,4.91,2.15,0,4.69-.22,7.39-.47v3.6a32.62,32.62,0,0,1-7.61.87c-7.38,0-10-2.83-10-10v-1.27c0-6.87,3.13-10.22,9.24-10.22,6.84,0,9.24,4.44,9.24,10.66v1.6Zm8.92-3.46c0-2.36-.48-4.94-4.44-4.94s-4.44,2.61-4.44,4.94v.33h8.88Z"/><path class="cls-3" d="M424.65,180.44v-13c0-2.94-.51-4-2.88-4a15.81,15.81,0,0,0-5.38,1.38v15.57h-4.77V160h4.59v1.64a13.63,13.63,0,0,1,6.73-2.15c5.78,0,6.55,3.35,6.55,8v13Z"/><path class="cls-3" d="M441.2,181c-4,0-5.63-1.6-5.63-5.89V163.81l-3.82-.32V160h3.82v-5.2h4.8V160h5v3.85h-5V175c0,1.89.14,2.25,1.89,2.25,1.05,0,2.51-.07,3.09-.14v3.27A17.14,17.14,0,0,1,441.2,181Z"/><rect class="cls-1" x="260.55" y="34.67" width="16.18" height="15.11"/></svg>